<svg id="Capa_1" data-name="Capa 1" xmlns="http://www.w3.org/2000/svg" viewBox="0 0 189.35 189.35"><defs><style>.cls-1{fill:#1d1d1b;}.cls-2{fill:#fea621;}.cls-3{fill:#fff;}</style></defs><title>Artboard 6</title><circle class="cls-1" cx="94.68" cy="94.68" r="94.68"/><path class="cls-2" d="M112.21,122.48l2.66,7.66A7.48,7.48,0,0,0,115,129a11.86,11.86,0,0,0-2.65-6.89C112.28,122.23,112.24,122.35,112.21,122.48Z"/><path class="cls-2" d="M121.89,95a2.93,2.93,0,0,0-.35-.4v0a2.11,2.11,0,0,0,0,.32,6.72,6.72,0,0,0,1.11,2.28Z"/><path class="cls-2" d="M137.17,138.19a23.62,23.62,0,0,1-6.43,9.06h7.47a1.6,1.6,0,0,0,1.4-2.18Z"/><path class="cls-2" d="M102.37,110.66a32.63,32.63,0,0,1-2.67-4H82.82a1.6,1.6,0,0,1-1.4-2.16l11.9-34.95a1.46,1.46,0,0,1,2.81,0l5.06,15.47c.12-.14.23-.3.35-.45a25,25,0,0,1,13.89-7.82L103.52,43.14a1.49,1.49,0,0,0-1.39-1H87.37a1.5,1.5,0,0,0-1.4,1L49.75,145.07a1.6,1.6,0,0,0,1.4,2.18H67.51a1.51,1.51,0,0,0,1.41-1.06l8.24-24.1a1.49,1.49,0,0,1,1.4-1.06H88.68A16.83,16.83,0,0,1,102.37,110.66Z"/><rect class="cls-1" x="106.02" y="118.91" width="12.03" height="16.15"/><rect class="cls-1" x="116.09" y="91.84" width="12.03" height="16.15"/><path class="cls-3" d="M121.19,89.4h.11a5,5,0,0,1,2.52.72c2.35,1.39,4.13,4.61,4.13,8.32,0,2.55.7,5.09,4,5.09,3.77,0,6.32-3.86,6.32-9,0-9-7.24-13-14.4-13.46-.53,0-1-.06-1.57-.06-7.12,0-13.3,2.6-16.91,6.8A13.5,13.5,0,0,0,102,96.77c0,12.91,18,19.31,18,32.22,0,3.42-1.75,8.77-7.63,8.77-4.57,0-7.11-3.77-7.11-8.16,0-5.44,6.58-14-1-14C98,115.56,92,120.47,92,130c0,10.71,8.26,18.78,19.4,18.78,12.73,0,22.91-7.19,22.91-21.94S118.14,104,116.65,95.86a6.84,6.84,0,0,1-.11-1.19A5,5,0,0,1,121.19,89.4Z"/></svg>